/* XPM */
static char *_15818d68e1944efbc2c47521817c904wR4JUORGOvP58xmc[] = {
/* columns rows colors chars-per-pixel */
"50 50 157 2 ",
"   c #213038",
".  c #263B39",
"X  c #2C453A",
"o  c #2F473D",
"O  c #375A3C",
"+  c #3C643D",
"@  c #426E3E",
"#  c #426F3E",
"$  c #47793F",
"%  c #302F43",
"&  c #3F2E4E",
"*  c #243640",
"=  c #253A45",
"-  c #263A45",
";  c #263C49",
":  c #273C49",
">  c #402E4E",
",  c #472D53",
"<  c #4E2D59",
"1  c #562D5F",
"2  c #5E2C64",
"3  c #652B69",
"4  c #6D2B6F",
"5  c #324940",
"6  c #3B5543",
"7  c #2A4351",
"8  c #2A4352",
"9  c #2A4452",
"0  c #2C4959",
"q  c #2E4D5F",
"w  c #3D4A51",
"e  c #3F6944",
"r  c #2F4F61",
"t  c #32556A",
"y  c #32576C",
"u  c #345B72",
"i  c #355B72",
"p  c #345B73",
"a  c #345C72",
"s  c #345C73",
"d  c #3E5F72",
"f  c #3A6673",
"g  c #376179",
"h  c #37617A",
"j  c #425157",
"k  c #4D5655",
"l  c #595A54",
"z  c #61525F",
"x  c #467041",
"c  c #467141",
"v  c #56794F",
"b  c #567A4F",
"n  c #457656",
"m  c #42725D",
"M  c #43735D",
"N  c #434669",
"B  c #465D6B",
"V  c #4D8340",
"C  c #528E41",
"Z  c #5D8C4E",
"A  c #5D8D4E",
"S  c #559044",
"D  c #589842",
"F  c #5EA343",
"G  c #63AD44",
"H  c #69B745",
"J  c #68B845",
"K  c #78AB5E",
"L  c #6EC246",
"P  c #74CD47",
"I  c #79D748",
"U  c #7CD94B",
"Y  c #7DD94B",
"T  c #7FDB4D",
"R  c #7FDB4E",
"E  c #80DB4D",
"W  c #80DB4E",
"Q  c #82DD50",
"!  c #82DD51",
"~  c #85DE53",
"^  c #86DE53",
"/  c #86DE54",
"(  c #8BD25F",
")  c #89E056",
"_  c #8BE159",
"`  c #8CE159",
"'  c #8CE259",
"]  c #8FE35B",
"[  c #8FE45C",
"{  c #92E55E",
"}  c #95E761",
"|  c #96E761",
" . c #99E963",
".. c #99E964",
"X. c #9CEB67",
"o. c #9FED69",
"O. c #A5F06F",
"+. c #A6F06F",
"@. c #A4E770",
"#. c #ACF474",
"$. c #3A6883",
"%. c #3B6A86",
"&. c #3C6E8A",
"*. c #3D6E8A",
"=. c #3F7283",
"-. c #3E718F",
";. c #3F7393",
":. c #3F7493",
">. c #427A9B",
",. c #427A9C",
"<. c #437DA0",
"1. c #447EA2",
"2. c #8B2985",
"3. c #9A2890",
"4. c #4C819F",
"5. c #56849E",
"6. c #7B9399",
"7. c #7E969D",
"8. c #4480A3",
"9. c #4683A7",
"0. c #4784A9",
"q. c #4785AA",
"w. c #4886AB",
"e. c #4887AE",
"r. c #4A8AB2",
"t. c #4A8BB3",
"y. c #4A8CB4",
"u. c #4B8DB5",
"i. c #4C8FB8",
"p. c #4C90B8",
"a. c #4C91BB",
"s. c #4D92BC",
"d. c #5E97B6",
"f. c #5694B9",
"g. c #7797AA",
"h. c #6695B2",
"j. c #87959D",
"k. c #90979B",
"l. c #82A0AB",
"z. c #85A4B7",
"x. c #90ACB4",
"c. c #99AEB2",
"v. c #D8B78F",
"b. c #C5B091",
"n. c #CAB494",
"m. c #DDBB92",
"M. c #E7C398",
"N. c #E9CFAA",
"B. c #FFD7A8",
"V. c #8AADC3",
"C. c #A7B8C2",
"Z. c #A1BECF",
"A. c #B8CFDB",
"S. c #C7CBCD",
"D. c #D0DFE7",
"F. c #E7EFF3",
"G. c white",
/* pixels */
"I I I I I I I I I I I I I I I I I I I I I R #.#.#.I I I I I I I I I I I I I I I I I I I I I I I I I ",
"I I I I I I I I I I I I I I I I I I I I I R #.#.#.I I I I I I I I I I I I I I I I I I I I I I I I I ",
"I I I I I I I I I I I I I I I I I I I I I R #.#.#.I I I I I I I I I I I I I I I I I I I I I I I I I ",
"I I I I I I I I I I I I I I I I I I I I I I E E E O.O.O.R I I I I I I I I [ O.O.} I I I I I I I I I ",
"I I I I I I I I I I I I I I I I I I I I I I I I I #.#.#.R I I I I I I I I { #.#. .I I I I I I I I I ",
"I I I I I I I I I I I I I I I I I I I I I I I I I #.#.#.R I I I I I I I I { #.#. .I I I I I I I I I ",
"I I I I I I I I I I I I I I I I I I I I I I I I I #.#.#.R I I I I I I I I { #.#. .I I ! o.o.X.I I I ",
"I I I I I I I I I I I I I I I I I I I I I I I I I #.#.#.R I I I I I I I I { #.#. .I I ^ #.#.O.I I I ",
"I I I I I I I I I I I I F @ @ @ @ @ @ @ @ @ @ @ @ v v v x @ @ @ @ @ @ G I { #.#. .I I ^ #.#.O.I I I ",
"I I I I I I I I I '  . .A                                             D I ! ' ' ^ I I ^ #.#.O.I I I ",
"I I I I I I I I I ..K v 6   8 g g g g g a   * &.&.&.&.&.&.&.&.&.&.&.&.m @ F I I I I I ^ #.#.O.I I I ",
"I I I I I I I I I ..v       q <.<.<.<.<.;.  ; s.s.s.s.s.s.s.s.s.s.s.s.t   V I I I I I ^ #.#.O.I I I ",
"I I I I I I I I F A z 2 &   q <.h.Z.z.y d k.j.e.e.s.s.s.s.s.s.s.s.s.s.:.g m V F I I I E { { ' I I I ",
"I I I I I I I I @   4 3.2   q <.V.G.S.  w G.F.<.<.s.s.s.s.s.s.s.s.s.s.s.s.g   @ I I I I I I I I I I ",
"I I I I I I I I @   4 3.2   q <.V.G.S.  w G.F.<.<.s.s.:.&.y.s.s.s.s.s.>.&.r   @ I I I I I I I I I I ",
"I I I I I I I I @   4 3.2   q <.V.G.S.  w G.F.<.<.s.s.;   w.s.s.s.s.s.t       @ I I I I I I I I I I ",
"I I I I I I I I @   < 4 ,   q <.V.G.S.  w G.F.<.<.s.s.u t y.s.s.s.s.s.&.t 8   @ I I I I I I I I I I ",
"I I I I I I I I @           q <.V.G.S.  w G.F.<.<.s.s.s.s.s.s.s.s.s.s.s.s.g   @ I I I I I I I I I I ",
"I I I I I I I I V O X   % > N %.g.D.C.9 B D.A.<.<.s.s.s.s.s.s.s.s.s.s.s.s.g   @ I I I I I I I I I I ",
"I I I I I I I I I I @   2 3.4   q <.<.<.<.<.<.<.<.s.s.s.s.s.s.s.s.s.s.s.s.g   @ I I I I I I I I I I ",
"I I I I I I I I I I @   2 3.4   q <.<.<.<.<.<.<.<.s.s.s.s.s.s.s.s.s.s.s.s.g   @ I I I I I I I I I I ",
"I I I I I I I I I Y x   2 3.4   q <.<.<.<.<.<.<.<.s.s.s.s.s.s.s.s.s.s.s.s.g   @ I I I I I I I I I I ",
"I I I I I I I I I ..v   1 2.3   q <.<.<.<.<.<.<.<.p.p.s.s.w.w.w.w.w.w.w.w.u   @ I I I I I I I I I I ",
"I I I I I I I I I ..v           q <.<.<.<.<.<.<.<.<.<.i.s.;                   @ I I I I I I I I I I ",
"I I I I I I I I I ..v           q <.<.<.<.<.<.<.<.<.<.i.s.;                   @ I I I I I I I I I I ",
"#.#.#.R I I I I I I I I { #.K       8 <.<.<.8.s.s.s.s.s.s.s.s.0   D I I I I I I I I I I I I I I I I ",
"#.#.#.R I I I I I I I I { #.K       8 <.<.<.8.s.s.s.s.s.s.s.s.0   D I I I I I I I I I I I I I I I I ",
"#.#.#.R I I I I I I I I { #.@.( C   8 <.5.b.n.N.N.N.N.N.N.N.N.k   D I I I I I I I I I I I I I I I I ",
"#.#.#.R I I I I I I I I { #.#. .D   8 <.5.v.m.B.B.B.B.B.B.B.B.l   D I I I I I I I I I I I I I I I I ",
"#.#.#.R I I I I I I I I S 5 5 o .   8 <.5.v.m.B.B.B.B.B.B.B.B.l   D I I I I I I I I I I I I I I I I ",
"#.#.#.R I I I I I I I I V           8 <.5.v.m.B.B.B.B.B.B.B.B.l   D I I I I I I I I I I I I I I I I ",
"^ ^ ^ I I I I I I I I I V   0 >.>.>.,.<.5.v.m.B.B.B.B.B.B.B.B.l   D I I I I I I I I I I I I I I I I ",
"I I I I I I I I I I I I V   t s.s.s.y.<.5.v.m.B.B.B.B.B.B.B.B.l   D I I I I I I I I I I I I I I I I ",
"I I I I I I I I I I I I V   ; t $.q.q.<.4.6.7.x.x.M.M.M.M.c.x.j   D I I I I I I I I I I I I I I I I ",
"I I I I I I I I I I I I V       q <.<.<.<.<.8.s.s.v.v.v.v.d.s.0   D I I I I I I I I I I I I I I I I ",
"I I I I I I I I I I I I J D @   - q a <.1.r.r.s.s.l.l.l.l.f.s.0   D I I I I I I I I I I I I I I I I ",
"I I I I I I I I I I I I I I D       8 <.8.s.s.s.s.s.s.s.s.s.s.0   D I I I I I I I I I I I I I I I I ",
"I I I I I I I I I I I I I I J V +   8 <.8.s.y.g g g g 9.e.p.s.0   D I I I ^ { { ) I I I I I I I I I ",
"I I I I I I I I I I I I I I I I D   8 <.8.s.w.        ;.<.i.s.0   D I I I { #.#. .I I I I I I I I I ",
"I I I I I I I I I I I I I I I I D   8 <.>.&.=.@ @     ;.<.-.&.n @ G I I I { #.#. .I I I I I I I I I ",
"_ _ _ Y I I I I I I I I I I I I D   8 <.;.  X I I     ;.<.-   G I I / _ _ {  . .' I I I I I I I I I ",
"#.#.#.R I I I I I I I I I I I I D   - g f @ $ I I     u g e @ H I I ..#.#.{ I I I I I I I I I I I I ",
"#.#.#.R I I I I I I I I I I I I D       X I I I I         L I I I I ..#.#.{ I I I I I I I I I I I I ",
"o.o.o.^ ^ ^ Y I I I I I I I I I F O O O @ I I I I O O O O P I I I I ..#.#.{ I I I I I I I I I I I I ",
"I I I O.#.#.^ I I I I I I I I I I I I I I I I I I I I I I I I I I I ..#.#.{ I I I I I I I I I I I I ",
"I I I O.#.#.^ I I I I I I I I I I I I I I I I I I I I I I I I I I I ..#.#.{ I I I I I I I I I I I I ",
"I I I O.#.#.^ I I I I I I I I I I I I I I I I I I I I I I I I I I I } O.O.[ I I I I I I I I I I I I ",
"I I I O.#.#.^ I I I I I I I I I I I I I I I I I I I I I I I I I I I I I I I I I I I I I I I I I I I ",
"I I I O.#.#.^ I I I I I I I I I I I I I I I I I I I I I I I I I I I I I I I I I I I I I I I I I I I ",
"I I I O.#.#.^ I I I I I I I I I I I I I I I I I I I I I I I I I I I I I I I I I I I I I I I I I I I "
};
