/* XPM */
static char *_9027368dac3417fc551dc3f63395d1d58VduxjRoRQ7VudR[] = {
/* columns rows colors chars-per-pixel */
"50 50 70 1 ",
"  c black",
". c #0F111A",
"X c #1E3612",
"o c #1D2233",
"O c #303337",
"+ c #2D472C",
"@ c #3D6C24",
"# c #406D27",
"$ c #49732F",
"% c #4C7432",
"& c #4B7D3E",
"* c #567A3A",
"= c #2D3544",
"- c #2C334D",
"; c #3F4451",
": c #3A4466",
"> c gray25",
", c #4E5159",
"< c #4E6949",
"1 c #424D6F",
"2 c #4A5777",
"3 c #60666E",
"4 c #707377",
"5 c #5BA136",
"6 c #538646",
"7 c #5A8D57",
"8 c #68A841",
"9 c #699765",
"0 c #6AA068",
"q c #79D748",
"w c #7CD94B",
"e c #7FDB4D",
"r c #7FDB4E",
"t c #80DB4D",
"y c #80DB4E",
"u c #82DD50",
"i c #82DD51",
"p c #85DE53",
"a c #86DE53",
"s c #89E056",
"d c #8BE159",
"f c #8CE159",
"g c #8CE259",
"h c #8FE35B",
"j c #8FE45C",
"k c #92E55E",
"l c #95E761",
"z c #96E761",
"x c #99E963",
"c c #99E964",
"v c #9CEB67",
"b c #9FED69",
"n c #A5F06F",
"m c #A6F06F",
"M c #ACF474",
"N c #526080",
"B c #5C6683",
"V c #5A6988",
"C c #74819D",
"Z c #7D87A1",
"A c #808080",
"S c #9098A5",
"D c #8D9AB2",
"F c #9CA1B2",
"G c #C0CBDC",
"H c #CED0D9",
"J c #D0D8E5",
"K c #DFE5ED",
"L c #EFF2F6",
"P c white",
/* pixels */
"qqqqqqqqqqqqqqqqqqqqqrMMMqqqqqqqqqqqqqqqqqqqqqqqqq",
"qqqqqqqqqqqqqqqqqqqqqrMMMqqqqqqqqqqqqqqqqqqqqqqqqq",
"qqqqqqqqqqqqqqqqqqqqqrMMMqqqqqqqqqqqqqqqqqqqqqqqqq",
"qqqqqqqqqqqqqqqqqqqqqqtttnnnrqqqqqqqqjnnlqqqqqqqqq",
"qqqqqqqqqqqqqqqqqqqqqqqqqMMMrqqqqqqqqkMMxqqqqqqqqq",
"qqqqqqqqqqqqqqqqqqqqqqqqqMMMrqqqqqqqqkMMxqqqqqqqqq",
"qqqqqqqqqqqqqqqqqqqqqqqqqMMMrqqqqqqqqkMMxqqibbvqqq",
"qqqqqqqqqqqqqqqqqqqqqqqqqMMMrqqqqqqqqkMMxqqaMMnqqq",
"qqqqqqqqqqqqqqqqqqqq@@@@@***#@@@@@@qqkMMxqqaMMnqqq",
"qqqqqqqqqgxxsqqqqqqq               qqiggaqqaMMnqqq",
"qqqqqqqqqcMMkqqqqqqq               qqqqqqqqaMMnqqq",
"qqqqqqqqqcMMkqq     GGKPPPPKGGGGGGG  @qqqqqaMMnqqq",
"qqqqqqqqqcMMkqq     GGKPPPPKGGGGGGG  @qqqqqtkkgqqq",
"qqqqqqqqqc**$@@33333334AAAA433GGGGG33<@@qqqqqqqqqq",
"qqqqqqqqqc     GGGGG          GGGGGGG3  qqqqqqqqqq",
"qqqqqqqqqg     GGGGG          GGGGGGG3  qqqqqqqqqq",
"qqqqqqq@  GGKPPPPA  :::::VVVVV::::::::::  @qqqqqqq",
"qqqqqqq@  GGKPPPPA  :::::VVVVV::::::::::  @qqqqqqq",
"qqqqq@@<33KKLPPAA,oo::122VVVVV221::::122oo+@@qqqqq",
"qqqqq  3GGPPPPP  o::::2VVVVVVVVV2::::2VV::o  qqqqq",
"qqqqq  3GGPPPPP  o::::2VVVVVVVVV2::::2VV::o  qqqqq",
"qqqqq  APPPPPPP          PPA  VVVVVVVVVV     qqqqq",
"qqqqq  APPPPPPP          PPA  VVVVVVVVVV     qqqqq",
"qqqqq  APPPPPPP33333  .ooAA>  22NVVVVN22  X@@qqqqq",
"qqqqq  APPPPPPPGGGGG  o::     ::2VVVV2::  @qqqqqqq",
"MMMrq  APPPPPPPGGGGG  o::     ::2VVVV2::  @qqqqqqq",
"MMMrq  APPPPPPPGGKPPPPF::VVVVV::o         @qqqqqqq",
"MMMrq  APPPPPPPGGKPPPPF::VVVVV::o         @qqqqqqq",
"MMMrq  APPPPPPPKKLPPPPHFF22NVV::-oo  .oo  @qqqqqqq",
"MMMrq  APPPPPPPPPPPPPPPPP::2VV:::::  o::  @qqqqqqq",
"MMMrq  APPPPPPPPPPPPPPPPP::2VV:::::  o::  @qqqqqqq",
"aaaqq  3GGPPKGGPPPPPPPPPPGG3              @qqqqqqq",
"qqqqq  3GGPPKGGPPPPPPPPPPGG3              @qqqqqqq",
"qqqqq@@<33KKJGGKKLPPPPLKKGGS33            @qqqqqqq",
"qqqqqqq@  GGGGGGGKPPPPKGGGGGGG            @qqqqqqq",
"qqqqqqq@  GGGGGGGKPPPPKGGGGGGG            @qqqqqqq",
"qqqqqqq@  ::ZGGGG3  VVDGGGG3         3GG  @qqqqqqq",
"qqqqqqq@  ::ZGGGG3  VVDGGGG3         3GG  @qqqqqqq",
"qqqqqqq@  ::BZZ33O  VVCDD33O       oo;33%@5qqqqqqq",
"qqqqqqq@  :::::     VVVVV          ::o  xqqqqqqqqq",
"dddwqqq@  :::::     VVVVV          ::o  gqqqqqqqqq",
"MMMrqqq@  ::o  qqqqq  =VV  @qq  o::  @qqqqqqqqqqqq",
"MMMrqqq@  ::o  qqqqq  =VV  @qq  o::  @qqqqqqqqqqqq",
"bbbaaaw5@@77&@@qqqqq@@600@@5qq@@&79**8qqqqqqqqqqqq",
"qqqnMMaqqqqqqqqqqqqqqqqqqqqqqqqqqqcMMkqqqqqqqqqqqq",
"qqqnMMaqqqqqqqqqqqqqqqqqqqqqqqqqqqcMMkqqqqqqqqqqqq",
"qqqnMMaqqqqqqqqqqqqqqqqqqqqqqqqqqqlnnjqqqqqqqqqqqq",
"qqqnMMaqqqqqqqqqqqqqqqqqqqqqqqqqqqqqqqqqqqqqqqqqqq",
"qqqnMMaqqqqqqqqqqqqqqqqqqqqqqqqqqqqqqqqqqqqqqqqqqq",
"qqqnMMaqqqqqqqqqqqqqqqqqqqqqqqqqqqqqqqqqqqqqqqqqqq"
};
