/* XPM */
static char *_b98ce372bf2465da2e94dd11f6855dfVTNBjVyDz290VIMx[] = {
/* columns rows colors chars-per-pixel */
"50 50 219 2 ",
"   c #151D28",
".  c #191D28",
"X  c #1D1D28",
"o  c #1C1E29",
"O  c #1E1F29",
"+  c #1F1F29",
"@  c #291C27",
"#  c #2E1C27",
"$  c #211D28",
"%  c #231D28",
"&  c #221E28",
"*  c #251D28",
"=  c #261E28",
"-  c #291D28",
";  c #281E28",
":  c #2C1D28",
">  c #301C27",
",  c #321C27",
"<  c #341C27",
"1  c #371D27",
"2  c #301D28",
"3  c #321F28",
"4  c #351E28",
"5  c #391E28",
"6  c #3A1E28",
"7  c #3C1F28",
"8  c #1D282A",
"9  c #252029",
"0  c #282129",
"q  c #302129",
"w  c #312329",
"e  c #332328",
"r  c #332329",
"t  c #35232A",
"y  c #382029",
"u  c #3C2029",
"i  c #3F2028",
"p  c #3F2029",
"a  c #3F2228",
"s  c #3B252A",
"d  c #322929",
"f  c #22342C",
"g  c #2B372D",
"h  c #31342C",
"j  c #3D332B",
"k  c #402028",
"l  c #422128",
"z  c #452229",
"x  c #442429",
"c  c #472628",
"v  c #44262B",
"b  c #4A2529",
"n  c #492628",
"m  c #4A242A",
"M  c #49272B",
"N  c #4B262B",
"B  c #4D252A",
"V  c #4F272A",
"C  c #4F262B",
"Z  c #402B2A",
"A  c #492828",
"S  c #4E2B29",
"D  c #4D282B",
"F  c #4E292B",
"G  c #50262A",
"H  c #50262B",
"J  c #52272B",
"K  c #53272B",
"L  c #52292B",
"P  c #55282B",
"I  c #55292B",
"U  c #56282B",
"Y  c #572B2B",
"T  c #512C28",
"R  c #512C29",
"E  c #542C29",
"W  c #542E28",
"Q  c #542E29",
"!  c #572D2A",
"~  c #572A2C",
"^  c #58292B",
"/  c #5B2A2B",
"(  c #5B2A2C",
")  c #5D2B2C",
"_  c #5E2B2C",
"`  c #5C3229",
"'  c #5E3429",
"]  c #602C2C",
"[  c #622E2C",
"{  c #613529",
"}  c #65302C",
"|  c #67322C",
" . c #62372E",
".. c #68322C",
"X. c #6A342C",
"o. c #6A352C",
"O. c #6D362C",
"+. c #66382A",
"@. c #69382A",
"#. c #693A2A",
"$. c #6F3B2B",
"%. c #6F382C",
"&. c #733F2A",
"*. c #763D2B",
"=. c #723A2C",
"-. c #743C2C",
";. c #763D2C",
":. c #773E2C",
">. c #3B6334",
",. c #3D6334",
"<. c #454B2F",
"1. c #464B30",
"2. c #555331",
"3. c #525932",
"4. c #5A5F34",
"5. c #73402A",
"6. c #70432D",
"7. c #79402B",
"8. c #78422A",
"9. c #7C412B",
"0. c #7C422B",
"q. c #7E432B",
"w. c #7E452A",
"e. c #7E442B",
"r. c #7E452B",
"t. c #7E462A",
"y. c #79402C",
"u. c #7C422C",
"i. c #7E432C",
"p. c #7E442C",
"a. c #634230",
"s. c #704B30",
"d. c #605E34",
"f. c #4E6334",
"g. c #416E36",
"h. c #477A38",
"j. c #497A38",
"k. c #4F7A38",
"l. c #577A38",
"z. c #6A6C37",
"x. c #6D6E39",
"c. c #706734",
"v. c #7C7747",
"b. c #80472B",
"n. c #83472B",
"m. c #83472C",
"M. c #83482B",
"N. c #86492B",
"B. c #884B2B",
"V. c #87542D",
"C. c #865C2F",
"Z. c #8D6034",
"A. c #846E32",
"S. c #846E33",
"D. c #877035",
"F. c #91753D",
"G. c #54883B",
"H. c #5C883B",
"J. c #54913C",
"K. c #5F903C",
"L. c #5F913C",
"P. c #6D813A",
"I. c #70833D",
"U. c #6B963E",
"Y. c #639C3E",
"T. c #70973E",
"R. c #6B8342",
"E. c #798945",
"W. c #659542",
"Q. c #7A9447",
"!. c #60A840",
"~. c #60A940",
"^. c #62A840",
"/. c #62A940",
"(. c #66A840",
"). c #68A840",
"_. c #69AA41",
"`. c #73AC41",
"'. c #6CB442",
"]. c #6DBF44",
"[. c #75B743",
"{. c #7DB441",
"}. c #71BF44",
"|. c #7BB351",
" X c #6CC044",
".X c #6FC044",
"XX c #70C044",
"oX c #71C044",
"OX c #76C144",
"+X c #76C145",
"@X c #76C245",
"#X c #7BC644",
"$X c #78CC47",
"%X c #79D748",
"&X c #7FDB4D",
"*X c #818938",
"=X c #83933D",
"-X c #9A9F50",
";X c #82A540",
":X c #9FB459",
">X c #85CA53",
",X c #9AC45A",
"<X c #85DE53",
"1X c #86DE53",
"2X c #8BE159",
"3X c #8FE35B",
"4X c #92E55E",
"5X c #93C061",
"6X c #99C262",
"7X c #A1C862",
"8X c #A7DF6B",
"9X c #96E761",
"0X c #9CEB67",
"qX c #9FED69",
"wX c #AAE96F",
"eX c #A5F06F",
"rX c #A6F06F",
"tX c #A7E770",
"yX c #ACF474",
/* pixels */
"%X%X%X%X%X%X%X%X%X%X%X%X%X%X%X*XS.S.S.S.S.D.F.F.F.S.S.S.S.S.S.S.S.#X%X%X%X%X%X%X%X%X%X%X%X%X%X%X%X%X",
"%X%X%X%X%X%X%X%X%X%X%X%X%X%X%XS.B.B.B.B.B.B.B.B.B.B.B.B.B.B.B.B.B.#X%X%X%X%X%X%X%X%X%X%X%X%X%X%X%X%X",
"%X%X%X%X%X%X%X%X%X%X%X%X%XC.C.V.B.B.B.B.B.B.B.B.B.B.B.B.B.B.B.B.B.C.C.C.C.C.C.S.%X%X%X%X%X%X%X%X%X%X",
"%X%X%X%X%X%X%X%X%X%X%X%X%XB.B.B.B.B.B.B.B.B.B.B.B.B.B.B.B.B.B.B.B.B.B.B.B.B.B.Z.9X%X%X%X%X%X%X%X%X%X",
"%X%X%X%X%X%X%X%X%X%X%X%X%XB.B.B.B.B.B.B.B.B.B.B.B.B.B.B.B.B.B.B.B.B.B.B.B.B.B.B.B.B.B.B.{.%X%X%X%X%X",
"%X%X%X%X%X%X%X%X%X%X$XOXOXB.B.B.B.B.B.B.B.B.B.B.B.B.B.B.B.B.B.B.B.B.B.B.B.B.B.B.B.B.B.B.{.%X%X%X%X%X",
"%X%X%X%X%X%X%X%X%X%X`.] ] B.B.B.B.B.B.B.B.B.B.B.B.B.B.B.B.B.B.B.B.B.B.B.B.B.B.B.B.B.B.B.,XqX0X%X%X%X",
"%X%X%X%X%X%X%X%X%X%X`.] ] B.B.B.B.B.B.B.B.B.B.B.B.B.B.B.B.B.B.B.B.B.B.B.B.B.B.B.B.B.p.p.7XyXeX%X%X%X",
"%X%X%X%X%X%X%X%X%X%X`.] ] B.B.B.B.B.B.B.B.B.B.B.B.B.B.B.B.B.B.B.B.B.B.B.B.B.B.B.B.B.] ] 6XyXeX%X%X%X",
"%X%X%X%X%X%X%X%X}.W.R.] ] B.B.B.B.B.B.B.B.B.B.B.B.B.B.B.B.B.B.B.B.B.B.B.B.n.y.i.B.B.] ] 6XyXeX%X%X%X",
"%X%X%X%X%X%X%X%XL.< i ] ] B.B.B.B.B.B.B.B.B.B.B.B.B.B.B.B.B.B.B.B.B.B.B.B.y.] | B.B.] ] 6XyXeX%X%X%X",
"%X%X%X%X%X%X%X%XL.< i ] ] B.B.B.B.B.B.B.B.B.B.B.B.B.9.-.9.B.B.B.B.-.-.-.-.-.-.-.-.-.b b 5XyXeX%X%X%X",
"%X%X%X%X%X%X%X%XL.< i ] ] B.B.B.B.B.B.B.B.B.B.B.B.B.%.] %.B.B.B.B.| ] ] ] %.B.n.] ] < < |.4X3X%X%X%X",
"%X%X%X%X%X%X%X%XL.< i ] ] B.B.-.%.%.%.%.%.%.%.%.%.%.-.7.9.B.B.B.B.9.7.7.7.9.B.n.] ] < < ).%X%X%X%X%X",
"%X%X%X%X%X%X%X%XL.< i ] ] B.B.X.] ] ] ] ] ] ] ] ] ] y.B.B.B.B.B.B.B.B.B.B.B.B.n.] ] < < ).%X%X%X%X%X",
"%X%X%X%X%X%X%X%XL.< i ] ] X.X.] ] ] ] ] ] ] ] ] ] ] | X.X.X.X.X.X.X.X.X.X.X.X...] ] < < ).%X%X%X%X%X",
"%X%X%X%X%X%X%X%XL.< i ] ] ] ] ] ] ] ] ] ] ] ] ] ] ] ] ] ] ] ] ] ] ] ] ] ] ] ] ] ] ] < < ).%X%X%X%X%X",
"%X%X%X%X%X%Xg.f 8 . $ 6 6 ] ] ] ] ] ] ] ] ] ] ] ] ] ] ] ] ] ] ] ] ] ] ] ] ] ] ^ 6 6 . . !.%X%X%X%X%X",
"%X%X%X%X%X%X>.      X < < ] ] ] ] ] ] ] ] ] ] ] ] ] ] ] ] ] ] ] ] ] ] ] ] ] ] ^ < <     !.%X%X%X%X%X",
"%X%X%X%X%X%X>.  $ < A B.B.B.B.B.B.-.] ] ] ] ] ] t.B.B.B.B.B.n.] ] ] ] z < < < >     ] ] `.%X%X%X%X%X",
"%X%X%X%X%X%X>.  $ < c m.m.B.B.B.B.*.| | | | | | t.B.B.B.B.B.n.| | ^ ^ z 6 6 6 4 X X P P `.%X%X%X%X%X",
"%X%X%X%X%X%X>.  $ < i ] ] B.B.B.B.B.B.B.B.B.B.B.B.B.B.B.B.B.B.B.B.i < J ] ] ] ] ] ]     !.%X%X%X%X%X",
"%X%X%X%X%X%X,.. = 6 l ] ] m.m.B.B.B.B.B.B.B.t.t.B.B.B.B.B.B.B.t.t.c 6 J ] ] ] ] P P     !.%X%X%X%X%X",
"%X%X%X%X%X%Xf.< z ] ] ] ] ] ] t.B.B.B.B.B.B.< < &.B.B.B.B.B.t.< < ^ ] ] ] ] ] ~         !.%X%X%X%X%X",
"%X%X%X%X[.`.2.A ! X...] ] ] ] -.p.p.p.p.p.p.i i +.5.5.5.5.5.#.i i _ ] ( P P P b X X d d G.!.].%X%X%X",
"yXyXyX&Xa.] y.B.B.B.i.] ] ] ] ] ] ] ] ] ] ] ] ] i < < < < < 6 ] ] ] ] z < < < < < < B.B.d   h.%X%X%X",
"yXwX:X;X6.%.9.B.B.B.n.%.%.] ] ] ] ] ] ] ] ] ] ] B z z z z z b %.%.P B ! ! ! ! ! ! ! B.B.d   h.%X%X%X",
"yX8XB.B.B.B.B.B.B.B.B.B.B.] ] ] ] ] ] ] ] ] ] ] ] ] ] ] ] ] | B.B.i < #.B.B.B.B.B.B.B.B.d   h.%X%X%X",
"yXwX-X=XV.B.B.B.B.B.B.B.B.-.-.-.-.X.] ] ] ] ] ] ] ] J b b b B -.-.{ ' 7.B.B.B.B.B.B.' ' w = k.%X%X%X",
"yXyXyX&XC.B.B.B.B.B.B.B.B.B.B.B.B.-.] ] ] ] ] ] ] ] z < < < 6 ] ] n.B.B.B.B.B.B.B.B.< < < < l.%X%X%X",
"yXyXyX&Xs.%.p.B.B.B.B.B.B.%.%.%.%.-.7.=.] ] ] ] b z 6 < < < < z z X.%.p.B.B.B.M.! ! B B 6 < l.%X%X%X",
"1X1X1X%Xa.] y.B.B.B.B.B.B.] ] ] ] -.B.i.] ] ] ] i < < < < < < < < ^ ] y.B.B.B.t.< < ] ] i < l.%X%X%X",
"%X%X%X%X`.`.c.X.X.X.X.X.X.9.9.9.9.n.B.i.] ] ] ] $.&.&.&.&.&.&.&.&.b i c A A A c P P ] ] i < l.%X%X%X",
"%X%X%X%X%X%Xz.] ] ] ] ] ] B.B.B.B.B.B.i.] ] ] ] t.B.B.B.B.B.B.B.B.i < < < < < 6 ] ] ] ] i < l.%X%X%X",
"%X%X%X%X%X%Xz.] O.n.n.n.n.B.B.B.B.B.B.i.] ] n.n.N.B.B.B.B.B.B.B.B.t.t.F < < < 6 ] ] 6 6 $ . j.%X%X%X",
"%X%X%X%X%X%Xz.] %.B.B.B.B.B.B.B.B.B.B.i.] ] B.B.B.B.B.B.B.B.B.B.B.B.B.! < < < 6 ] ] < < X   h.%X%X%X",
"%X%X%X%Xf       w ] X.B.B.B.B.B.B.' < i ] ] B.B.B.B.! < ! B.B.B.B.B.B.B.B.#.< >     < < ).%X%X%X%X%X",
"%X%XOXOXg X X . w ] | m.m.m.m.m.m.` < i ] ] m.m.t.t.R 6 R t.t.t.t.t.t.n.m.#.6 4     3 3 ).%X%X%X%X%X",
"%XOX] ] ] ] z < z ] ] ] ] ] ] ] ] b < i ] ] ] ] i < J ] B < < < < < < J ] ] ] ~         !.%X%X%X%X%X",
"%XOX] ] ] ] z < l P ^ ] ] ] ] ^ P z < i ] ] ] ] i < J ] J i i i i i i P ] _ P b X X     H.`.OX%X%X%X",
"2X>X] ] ] ] z < < < i ] ] ] ] i < < < i ] ] ] ] i < J ] ] ] ] ] ] ] ] ] ] B < < < <     F ] P.%X%X%X",
"yXtXv.x. .] J z i - 3 B B B B 7 < # - y ] ] ] ] i < z B P ] ] ] ] ] ] P B z < > - - w w L ] d.L.).%X",
"yXyXyX&Xa.] ] ] c   X < < < < < < =   0 ] ] ] ] i < < < z ] ] ] ] ] ] z < < < >     ] ] ] ] b < 1.%X",
"qXqXqX1XQ.E.I.P.4.s t = = = = = = X   X s s b b b b b b b b b b b b b 7 < # = - s s ] ] ] ] b < 1.%X",
"%X%X%XeXyXyX1X%XT.] F                       < < P ] ] ] B < < < < < < < < -   X ] ] ] ] ] ] b < 1.%X",
"%X%X%XeXyXyX1X%XOXT.U.J.J.J.J.h @ @ @ $     < < l z P ] ^ B B < < < < - $ w c b ] ] z z z z 3.L.Y.%X",
"%X%X%XeXyXyX1X%X%X%X%X%X%X%X%X<.< < < :     < < < < J ] ] ] ^ < < < < $   w ] ] ] ] < < < < l.%X%X%X",
"%X%X%XeXyXyX1X%X%X%X%X%X%X%X%X'.).).).(.!.!.X X X X 9 0 w i Z ).).).).!.!.).`.`.`.`.).).).).oX%X%X%X",
"%X%X%XeXyXyX1X%X%X%X%X%X%X%X%X%X%X%X%X%X%X%X            $ < j %X%X%X%X%X%X%X%X%X%X%X%X%X%X%X%X%X%X%X",
"%X%X%XeXyXyX1X%X%X%X%X%X%X%X%X%X%X%X%X%X%X%X X X X X X X XoXoX%X%X%X%X%X%X%X%X%X%X%X%X%X%X%X%X%X%X%X"
};
