/* XPM */
static char *_959989a14eb49b2a80c65d4e617d147ItjlJA4SREvrK0cC[] = {
/* columns rows colors chars-per-pixel */
"50 50 206 2 ",
"   c #312A29",
".  c #382F2A",
"X  c #3B322D",
"o  c #3A3D2E",
"O  c #34332B",
"+  c #363131",
"@  c #393535",
"#  c #3D3933",
"$  c #3D3B3B",
"%  c #41372E",
"&  c #453A2E",
"*  c #493C2E",
"=  c #453A31",
"-  c #4A3E32",
";  c #413E3E",
":  c #394A36",
">  c #3C4736",
",  c #3D543B",
"<  c #3F613E",
"1  c #4F402C",
"2  c #4C4D2F",
"3  c #54442D",
"4  c #59472E",
"5  c #5B492E",
"6  c #434431",
"7  c #4E4133",
"8  c #4A4C33",
"9  c #534534",
"0  c #574834",
"q  c #5C4B33",
"w  c #5B4B3A",
"e  c #584632",
"r  c #465635",
"t  c #595136",
"y  c #545335",
"u  c #614D2F",
"i  c #6D562F",
"p  c #614E33",
"a  c #655233",
"s  c #6A5534",
"d  c #63513A",
"f  c #6C5638",
"g  c #6F5939",
"h  c #695B35",
"j  c #745B34",
"k  c #795F35",
"l  c #745D3A",
"z  c #785F39",
"x  c #705737",
"c  c #5B693B",
"v  c #517638",
"b  c #476033",
"n  c #696536",
"m  c #7D6236",
"M  c #7B623B",
"N  c #74673A",
"B  c #7E713A",
"V  c #6C7B38",
"C  c #434242",
"Z  c #4A4747",
"A  c #444C44",
"S  c #4C4B4B",
"D  c #514E4E",
"F  c #4B5249",
"G  c #465945",
"H  c #505B4D",
"J  c #565252",
"K  c #5A5656",
"L  c #5A5E56",
"P  c #5D5858",
"I  c #555A52",
"U  c #6E5A41",
"Y  c #735E41",
"T  c #645E5E",
"R  c #426242",
"E  c #426942",
"W  c #4A6648",
"Q  c #4B6947",
"!  c #4B7843",
"~  c #507B44",
"^  c #586354",
"/  c #7C6545",
"(  c #79654B",
")  c #796B59",
"_  c #666060",
"`  c #6B6564",
"'  c #706969",
"]  c #816537",
"[  c #826639",
"{  c #86693A",
"}  c #8B6C3C",
"|  c #906F3D",
" . c #83753A",
".. c #94733F",
"X. c #856B43",
"o. c #8A6E41",
"O. c #836C4D",
"+. c #816641",
"@. c #8D7244",
"#. c #8B714C",
"$. c #957545",
"%. c #987542",
"&. c #9B7945",
"*. c #93764A",
"=. c #957A4C",
"-. c #9C7C4B",
";. c #937940",
":. c #806C50",
">. c #8D7552",
",. c #8D7758",
"<. c #9A7D52",
"1. c #957C57",
"2. c #A17E49",
"3. c #5E963D",
"4. c #668A3D",
"5. c #6E9A3E",
"6. c #73963C",
"7. c #62A13F",
"8. c #75A73F",
"9. c #4F8443",
"0. c #56854A",
"q. c #599145",
"w. c #569244",
"e. c #67824A",
"r. c #7F8E4A",
"t. c #7F9F43",
"y. c #67AB41",
"u. c #69A743",
"i. c #76AC42",
"p. c #6EB343",
"a. c #6BBB46",
"s. c #74BD44",
"d. c #77B745",
"f. c #74AA59",
"g. c #7AB651",
"h. c #71C244",
"j. c #7AC746",
"k. c #74CB47",
"l. c #7DCB47",
"z. c #75D047",
"x. c #79D748",
"c. c #7EDA4C",
"v. c #79D148",
"b. c #6FC247",
"n. c #8B8741",
"m. c #8C9F47",
"M. c #9A9F4D",
"N. c #9D8258",
"B. c #9F8349",
"V. c #A4814C",
"C. c #A48352",
"Z. c #AA8652",
"A. c #AD8955",
"S. c #AC8B5A",
"D. c #A6885C",
"F. c #B18D56",
"G. c #B28E5A",
"H. c #B6925C",
"J. c #BA955E",
"K. c #89AD5A",
"L. c #9EAB52",
"P. c #91AE4C",
"I. c #A0AC55",
"U. c #A88C62",
"Y. c #AD9061",
"T. c #B59562",
"R. c #BC9761",
"E. c #BD9A63",
"W. c #B8996A",
"Q. c #B69B73",
"!. c #B0A762",
"~. c #BDA072",
"^. c #C29C64",
"/. c #C29F69",
"(. c #C4A16C",
"). c #CDA975",
"_. c #C6A675",
"`. c #D0AE79",
"'. c #D4B37E",
"]. c #C7B575",
"[. c #80C049",
"{. c #89C854",
"}. c #85DE53",
"|. c #8BDD5B",
" X c #91DC5F",
".X c #8CE25A",
"XX c #9DDB6B",
"oX c #94E561",
"OX c #9AEA65",
"+X c #9FED69",
"@X c #A6F06F",
"#X c #A5F06F",
"$X c #ACF474",
"%X c #ACF474",
"&X c #A5E770",
"*X c #C8AF88",
"=X c #D6B682",
"-X c #D9B985",
";X c #DABB88",
":X c #D9BE95",
">X c #C9B698",
",X c #DDC49B",
"<X c #DFC8A5",
"1X c #E2CBA6",
"2X c #E8D3B1",
"3X c #F3E6D2",
/* pixels */
"x.x.x.x.x.x.x.x.x.x.x.x.x.x.x.x.x.x.x.x.x.c.%X%X%Xx.x.x.x.x.x.x.x.x.x.x.x.x.x.x.x.x.x.x.x.x.x.x.x.x.",
"x.x.x.x.x.x.x.x.x.x.x.x.x.x.x.x.x.k.y.4.V 8 X         6 y c 4.y.x.x.x.x.x.x.x.x.x.x.x.x.x.x.x.x.x.x.",
"x.x.x.x.x.x.x.x.x.x.x.x.x.x.x.y.r O   X X         = 9 9 % 1 X = X b 7.x.x.x.x.x.x.x.x.x.x.x.x.x.x.x.",
"x.x.x.x.x.x.x.x.x.x.x.x.x.4.6 .                           = q 3 .     2 u..X#X#XoXx.x.x.x.x.x.x.x.x.",
"x.x.x.x.x.x.x.x.x.x.x.p.8 7 9 9           X 7 9 7 = . .                 3 n K.%XOXx.x.x.x.x.x.x.x.x.",
"x.x.x.x.x.x.x.x.x.k.v 7 7 q q 9 = .       % q 0 9 9 9 9 =   . . . . % =       e. Xx.x.x.x.x.x.x.x.x.",
"x.x.x.x.x.x.x.x.j.y 1 4 . = 9 9 9 7       = X 9 & 7 9 0 q . 4 i q p 4 a 9       o h.x.}.+X+XOXx.x.x.",
"x.x.x.x.x.x.x.s.n j j a q & 9 4 7 X X X   X % - 7 * X % - 9 0 p M z k j 0         o p.}.%X%X#Xx.x.x.",
"x.x.x.x.x.x.s.N z a s 0 a a a % % x x 0 9 % * x } } q 9 0 0 w q a p f 0 %           O g.%X%X#Xx.x.x.",
"x.x.x.x.x.h.6 0 z s i m m ] { u x &...] [ f ..%.2.V.q s } } } M a k } a .     . = X   > XX%X#Xx.x.x.",
"x.x.x.x.k.6 p %...| | ..k k ....q -.R.V.A.J.(.E.Z.s x ..............V.V.p - X   . .     6 &X#Xx.x.x.",
"x.x.x.x.v X 9 -.H.&.......| ..V.C.p } Y.S.-.M l j { Z.V.........&.E.H.z q } z q - X - X X e.#Xx.x.x.",
"x.x.x.3.      . ( /.(.(./.^.(./.C.i i i m m a 0 * q @.E.(.E.Z.V.R.*.q X [ { { } } e % 7 9 7 g.x.x.x.",
"x.x.x.y s q p X   X d #.>.1.( q X 7 s l 0 q q s i q 9 q M ] ] m 9 X X 0 A.Z.Z.Z.%.s 1 1 1 1 y x.x.x.",
"x.x.8.i a s i i 0 9 9 q q q 0 7 .   0 { i i [ ] m ..s p 2...z l f = = 9 i ] ] a = s i i q q i 8.x.x.",
"x.x.N z z M z x s M } ] } ] k j s q 2.%.......[ k ....f +.R.G.A.Z.$.{ g x 0 0 9 9 7 f [ k k k B x.x.",
"x.i.j [ { { m } ..| ..{ ..[ ..%.=.0 o.E.Z.&.&.&.&.&.Z.J.s k #.=.X.0 X   X 3 1 4 4 4 4 p p a p q d.x.",
"x.I.&.&.%.m k | | j o.&.&.} %.$.0 7 a { T.).).).(.`.(.-.4 % - q 9 0 p - p k i k { { { [ [ } ....n.x.",
"x.=.(.).(.R.T.-.-.$.>.>.Z.R.(.l X . 0 3 a o.-.C.T.D.a q = % X     X 9 q M { m | [ ] ..] } %.2.2.B.v.",
"p.0 z %.Z.G.A.$.o.M l d k -.M 9     X X 0 a i q 0 9 X X X           % 9 Z.&.m ....} ..&.2.J.A.T.T.[.",
"t.a k k @.@.X.M Y l U d a * 9 =         X 7 0 9 - X                 . - U G.H.S.R.J.E.(.H./ 4 p k 5.",
"M.H.H.Z.X.z f q * i 0 9 7 X .             . X .                         X w O.D.E.).).$.a & l R.<.L.",
"!.S.$.a 9 q X   - q k x .                                                   - 0 s $.#.O.U.T.U./ 0 n.",
";.k q q 0 Y U M [ ] [ 3                                                       = 0 j { } @.M g j m N ",
"m i u #.N.(.^.E.=.g 9                                                           q p [ | | 2.F.Z.} s ",
"* q   :.>X2X;X-X-X1.%                                                           9 0 M -.N.o.i i i 9 ",
"- - z { i f S.(.*X) X                                                           X a x m q =.#.#.G.*.",
"y 9 ..j p [ [ J.X.9                                                             . 0 =.>.Q.:X).%.} N ",
"c . 0 M 0 { ] $.9 9 %                                                           7 0 i s { ....k i n ",
"r.4 q } a M k { 0 p &                                                           7 0 p 0 q k k s a c ",
"K.X 7 q 9 q u s z p .                                                         X ( A.F.C.<.<.O.0 M 6.",
"d.  . = q 9 0 d 0 7                       + .     @ $ @                       X *X).).(.R.H.R.d p p.",
"k.a * z 2.V.-.] z %       $ @     . $   $ $ +   . + @ +     $ + +             w S.-.G.[ H.l V.w t x.",
"x.M.H.J.A./ a a a X     @ $ +     . @ $ $ $ $ $ + + $ @ @ + @ $ C ; +         - X.M M f g 9 a p m.x.",
"x.{.<.g s / / <.d . . @ C @   $ $   $ ; C C C @     $ C C C + + .   + @ C .   = q s k j i 4 0 q i.x.",
"x.x. .k H.).'.)._.= + C C   @ $ +         + @ @   @ @ $ $ + + $ C . $ C C @   7 { G.Z...&.&.l N x.x.",
"x.x.i.=.=X'.=X).=X,.        @ @   @ Z Z ; C @ C Z S S $     +   @     +   X d <.R.E.^.E.E.).R.P.x.x.",
"x.x.x.N W.:X<X3X1XX.-   C C C @     + Z S S Z ; + $ ; S S Z     C C C   X ) ).=X=X`.-X=X'.-X].x.x.x.",
"x.x.x.p.M 2.^.^.H.i 5 X       @ ; S S + @ Z C $ C S S S $ @         @ . % _.:X,X1X<X2X1X:X~.{.x.x.x.",
"x.x.x.x.4.{ 2.[ o.] ]   + $ C A S $ C Z J J J J Z A > , , # P T P C +   . { A.Z.^.F.R.J.&.m.x.x.x.x.",
".X.X.Xc.k.h } [ J.] f   + @ > G G F K P T ` ` ` P Z S ^ L H A C J Z ; $   q M &.E.A.} m  .v.x.x.x.x.",
"%X%X%Xc.x.h.6 q $.m %     @ Z T K Z C A Z S J J J D Z _ ` _ K H @     @   i 0 j G.V.k  .l.x.x.x.x.x.",
"%X%X%Xc.x.x.s.t x q + C ; C P P D A G W ` ` _ T Z Z J C Z J F F $ + : : : % 9 k M x { j.x.x.x.x.x.x.",
"+X+X+X}.}.}.c.j.B 9   + + $ F A A G A F I K ` W H ' ` G R R E E ! u.{.f.E o 9 s a n j.x.x.x.x.x.x.x.",
"x.x.x.#X%X%X}.x.h.o O , A S L L G ~ ~ 9.9.Q Q ~ E W 0.9.9.a.a.a.z.x.oXf.0.< r # y h.x.x.x.x.x.x.x.x.",
"x.x.x.#X%X%X}.x.x.z.q.! q.q.q.q.w.b.x.x.x.k.k.x.k.k.x.x.x.x.x.x.x.x.OX%X%X0.E w.k.x.x.x.x.x.x.x.x.x.",
"x.x.x.#X%X%X}.x.x.x.x.z.x.x.x.x.x.x.x.x.x.x.x.x.x.x.x.x.x.x.x.x.x.x.oX#X#X|.k.x.x.x.x.x.x.x.x.x.x.x.",
"x.x.x.#X%X%X}.x.x.x.x.x.x.x.x.x.x.x.x.x.x.x.x.x.x.x.x.x.x.x.x.x.x.x.x.x.x.x.x.x.x.x.x.x.x.x.x.x.x.x.",
"x.x.x.#X%X%X}.x.x.x.x.x.x.x.x.x.x.x.x.x.x.x.x.x.x.x.x.x.x.x.x.x.x.x.x.x.x.x.x.x.x.x.x.x.x.x.x.x.x.x.",
"x.x.x.#X%X%X}.x.x.x.x.x.x.x.x.x.x.x.x.x.x.x.x.x.x.x.x.x.x.x.x.x.x.x.x.x.x.x.x.x.x.x.x.x.x.x.x.x.x.x."
};
