/* XPM */
static char *_7396e2d621f42cee7d3981032f4dce1x8bgg5j5OOkBdQGd[] = {
/* columns rows colors chars-per-pixel */
"50 50 33 1 ",
"  c #79D748",
". c #7CD84A",
"X c #7CD84B",
"o c #7FDA4D",
"O c #7FDB4D",
"+ c #7FDB4E",
"@ c #80DB4D",
"# c #80DB4E",
"$ c #82DD50",
"% c #83DD51",
"& c #85DE53",
"* c #86DE53",
"= c #89DF55",
"- c #89DF56",
"; c #88E056",
": c #89E056",
"> c #8BE159",
", c #8CE158",
"< c #8CE159",
"1 c #8CE259",
"2 c #8FE35B",
"3 c #8FE45C",
"4 c #92E55E",
"5 c #96E660",
"6 c #96E761",
"7 c #99E963",
"8 c #99E964",
"9 c #9CEB66",
"0 c #9FEC69",
"q c #9FED69",
"w c #A5F06E",
"e c #A5F06F",
"r c #ACF474",
/* pixels */
"                     +rrr                         ",
"                     +rrr                         ",
"                     +rrr                         ",
"                      @@@eee+        ,ee6         ",
"                         rrr+        4rr7         ",
"                         rrr+        4rr7         ",
"                         rrr+        4rr7  %qq9   ",
"                         rrr+        4rr7  *rre   ",
"                         rrr+        4rr7  *rre   ",
"         ,77=            ,,,X        %,,*  *rre   ",
"         8rr4                              *rre   ",
"         8rr4                              *rre   ",
"         8rr4                              +44,   ",
"         8rr4                                     ",
"         8rr4                                     ",
"         ,77:                  :>>+               ",
"                               qrr,               ",
"                               qrr,               ",
"                               6qq,**+            ",
"                                  8rr4            ",
"                                  8rr4            ",
"         X++X                     8rr4            ",
"         8rr4                     8rr4            ",
"         8rr4                     8rr4            ",
"         8rr4                     8rr4            ",
"rrr+        4rr7                                  ",
"rrr+        4rr7                                  ",
"rrr+        4rr7                                  ",
"rrr+        4rr7                                  ",
"rrr+        4rr7                                  ",
"rrr+        4rr7                                  ",
"***         @**@         qqq+                     ",
"                         rrr+                     ",
"                         rrr+                     ",
"                         rrr+                     ",
"                         rrr+                     ",
"                         rrr+                     ",
"                         444X        *44=         ",
"                                     4rr7         ",
"                                     4rr7         ",
">>>X                              *>>477,         ",
"rrr+                              8rr4            ",
"rrr+                              8rr4            ",
"qqq***X                           8rr4            ",
"   err*                           8rr4            ",
"   err*                           8rr4            ",
"   err*                           6ee3            ",
"   err*                                           ",
"   err*                                           ",
"   err*                                           "
};
